#!OML:ASF I:\golf\golf\golf 2\Subject 1\2002-09-07\Subject1.ASF
:FULLY-SPECIFIED
:DEGREES
334
root 0.533862 9.04562 -4.25882 6.92066 3.87079 -5.64706
lowerback 40.5895 8.01687 5.16114
upperback 18.3711 11.8123 7.96649
thorax 0.39594 5.65386 1.84864
lowerneck -14.6964 -7.0655 -2.91635
upperneck 25.2153 -7.3103 -5.92248
head 10.3856 -4.18285 -2.54611
rclavicle 6.99722e-014 6.20208e-014
rhumerus 26.5415 -3.42559 -70.6906
rradius 33.9322
rwrist 24.2375
rhand -54.6901 67.3207
rfingers 7.12502
rthumb -27.0837 39.2433
lclavicle 6.99722e-014 6.20208e-014
lhumerus -39.0038 -36.2614 98.5883
lradius 96.0061
lwrist -14.6703
lhand -49.6717 21.0329
lfingers 7.12502
lthumb -22.274 49.7692
rfemur -115.404 -64.406 54.0327
rtibia 143.967
rfoot -29.2674 24.3754
rtoes -5.11384
lfemur -101.074 45.4625 -19.8905
ltibia 142.425
lfoot -35.3269 -29.1029
ltoes -24.0701
335
root 0.532876 9.04193 -4.25704 6.89965 3.88959 -5.64655
lowerback 40.6479 7.98115 5.21724
upperback 18.3254 11.7921 7.90222
thorax 0.353363 5.64936 1.75457
lowerneck -14.7335 -7.03432 -2.77257
upperneck 25.3358 -7.27124 -6.02205
head 10.4258 -4.16354 -2.60556
rclavicle 2.8625e-014 4.77083e-014
rhumerus 26.5019 -3.33392 -70.6662
rradius 34.0038
rwrist 24.6319
rhand -54.6484 66.7803
rfingers 7.12502
rthumb -27.0438 38.6967
lclavicle 2.8625e-014 4.77083e-014
lhumerus -39.1024 -36.3028 98.5292
lradius 96.063
lwrist -14.6285
lhand -49.7155 21.0143
lfingers 7.12502
lthumb -22.316 49.7456
rfemur -115.503 -64.5196 54.1292
rtibia 144.004
rfoot -29.2705 24.3954
rtoes -5.13005
lfemur -101.009 45.4448 -19.8478
ltibia 142.436
lfoot -35.4791 -28.9905
ltoes -24.3966
336
root 0.532163 9.04056 -4.2554 6.94379 3.85806 -5.58236
lowerback 40.6285 8.00267 5.16279
upperback 18.2852 11.7985 7.85047
thorax 0.315606 5.65137 1.72207
lowerneck -14.6342 -7.02112 -2.69606
upperneck 25.2809 -7.2671 -6.06746
head 10.3806 -4.15921 -2.62597
rclavicle -6.99722e-014 -3.02153e-014
rhumerus 26.5125 -2.99234 -70.3796
rradius 33.9083
rwrist 24.776
rhand -54.8536 66.737
rfingers 7.12502
rthumb -27.2401 38.6841
lclavicle -6.99722e-014 -3.02153e-014
lhumerus -39.1909 -36.3163 98.5043
lradius 96.0876
lwrist -14.6716
lhand -49.709 21.0435
lfingers 7.12502
lthumb -22.3098 49.7755
rfemur -115.627 -64.5178 54.174
rtibia 144.038
rfoot -29.195 24.4422
rtoes -4.98119
lfemur -100.987 45.3972 -19.8694
ltibia 142.435
lfoot -35.5102 -28.969
ltoes -24.4716
337
root 0.53357 9.03932 -4.25341 6.99155 3.75804 -5.58817
lowerback 40.5625 8.05144 5.13045
upperback 18.2857 11.8389 7.83413
thorax 0.332845 5.6706 1.71241
lowerneck -14.5976 -7.02599 -2.74174
upperneck 25.256 -7.27696 -6.01946
head 10.3687 -4.16202 -2.6004
rclavicle 1.30403e-013 -1.59028e-014
rhumerus 26.534 -2.51808 -69.9725
rradius 33.7755
rwrist 25.0054
rhand -54.9968 66.6386
rfingers 7.12502
rthumb -27.3771 38.6072
lclavicle 1.30403e-013 -1.59028e-014
lhumerus -39.2192 -36.282 98.5091
lradius 96.1004
lwrist -14.819
lhand -49.7266 21.0492
lfingers 7.12502
lthumb -22.3266 49.7792
rfemur -115.682 -64.6942 54.0614
rtibia 144.161
rfoot -28.6871 25.4711
rtoes -2.07949
lfemur -100.994 45.52 -19.8378
ltibia 142.45
lfoot -35.6511 -28.9905
ltoes -24.6703
338
root 0.53711 9.04714 -4.24356 6.90355 3.38327 -5.63163
lowerback 40.598 8.21229 5.04143
upperback 18.3395 11.986 7.79229
thorax 0.374708 5.73769 1.66601
lowerneck -14.6015 -7.01663 -2.75745
upperneck 25.2735 -7.26995 -5.97712
head 10.3785 -4.15541 -2.58314
rclavicle -2.22639e-014 1.90833e-014
rhumerus 26.5136 -2.19749 -69.7325
rradius 33.7154
rwrist 25.7191
rhand -55.2928 66.0538
rfingers 7.12502
rthumb -27.6602 38.0675
lclavicle -2.22639e-014 1.90833e-014
lhumerus -39.2482 -36.2728 98.4932
lradius 96.1101
lwrist -14.9223
lhand -49.7729 20.8658
lfingers 7.12502
lthumb -22.3712 49.5905
rfemur -114.832 -64.7018 53.2232
rtibia 144.21
rfoot -28.2619 26.4022
rtoes 0.749149
lfemur -100.719 46.0558 -19.6238
ltibia 142.365
lfoot -35.1378 -30.0369
ltoes -22.5833
339
root 0.53038 9.03699 -4.25512 7.09909 3.78658 -5.66227
lowerback 40.4362 8.02487 5.22269
upperback 18.2565 11.8314 7.78253
thorax 0.366557 5.67776 1.62714
lowerneck -14.5525 -7.0014 -2.69892
upperneck 25.2284 -7.27046 -5.96752
head 10.3497 -4.149 -2.58489
rclavicle -1.01778e-013 6.04305e-014
rhumerus 26.5379 -2.04472 -69.6022
rradius 33.686
rwrist 26.3878
rhand -55.5167 65.3513
rfingers 7.12502
rthumb -27.8743 37.3995
lclavicle -1.01778e-013 6.04305e-014
lhumerus -39.2763 -36.2656 98.4403
lradius 96.1418
lwrist -14.9901
lhand -49.7317 20.8944
lfingers 7.12502
lthumb -22.3315 49.6239
rfemur -116.061 -64.7849 54.3729
rtibia 144.319
rfoot -28.1122 26.2364
rtoes 0.832817
lfemur -101.44 44.8521 -19.6351
ltibia 142.34
lfoot -33.7221 -30.6758
ltoes -20.7137
340
root 0.528149 9.03668 -4.25733 7.10739 3.8547 -5.6489
lowerback 40.4655 7.98908 5.25732
upperback 18.2465 11.8028 7.76154
thorax 0.358418 5.66704 1.59593
lowerneck -14.5317 -6.99109 -2.68044
upperneck 25.2019 -7.26649 -5.95342
head 10.3357 -4.14381 -2.58029
rclavicle 6.36111e-015 6.36111e-015
rhumerus 26.6269 -1.82103 -69.3509
rradius 33.6684
rwrist 26.6601
rhand -55.1523 64.3317
rfingers 7.12502
rthumb -27.5258 36.3239
lclavicle 6.36111e-015 6.36111e-015
lhumerus -39.3212 -36.229 98.4056
lradius 96.2217
lwrist -15.0738
lhand -49.6982 21.0994
lfingers 7.12502
lthumb -22.2994 49.8327
rfemur -116.089 -64.9847 54.321
rtibia 144.388
rfoot -27.6681 26.8795
rtoes 2.94138
lfemur -101.471 44.6601 -19.5989
ltibia 142.328
lfoot -33.7869 -30.5355
ltoes -21.0238
341
root 0.526084 9.04069 -4.25897 7.03626 3.8468 -5.55429
lowerback 40.6742 8.00311 5.19386
upperback 18.2075 11.8102 7.73305
thorax 0.2482 5.66274 1.57261
lowerneck -14.5043 -6.98765 -2.73041
upperneck 25.2385 -7.26254 -5.8966
head 10.3489 -4.13951 -2.55224
rclavicle 3.49861e-014 1.74931e-014
rhumerus 26.7153 -1.51287 -69.032
rradius 33.5536
rwrist 27.0972
rhand -54.9926 63.4389
rfingers 7.12502
rthumb -27.3731 35.4068
lclavicle 3.49861e-014 1.74931e-014
lhumerus -39.3522 -36.2075 98.4123
lradius 96.2442
lwrist -15.0783
lhand -49.6983 21.1947
lfingers 7.12502
lthumb -22.2995 49.928
rfemur -115.752 -65.2126 53.8438
rtibia 144.418
rfoot -27.3012 27.5497
rtoes 4.89481
lfemur -101.202 44.6015 -19.5555
ltibia 142.304
lfoot -34.2378 -30.1274
ltoes -21.9766
342
root 0.526943 9.03289 -4.26075 7.19753 3.96069 -5.52167
lowerback 40.5141 7.96004 5.20953
upperback 18.1684 11.7621 7.73045
thorax 0.254922 5.64314 1.58683
lowerneck -14.4541 -6.98558 -2.77975
upperneck 25.2363 -7.25995 -5.85321
head 10.343 -4.13729 -2.52648
rclavicle -1.49486e-013 -6.36111e-015
rhumerus 26.8583 -1.19018 -68.6704
rradius 33.2798
rwrist 27.729
rhand -55.4428 63.1917
rfingers 7.12502
rthumb -27.8036 35.2285
lclavicle -1.49486e-013 -6.36111e-015
lhumerus -39.2737 -36.1696 98.4292
lradius 96.1587
lwrist -15.0411
lhand -49.7048 21.0107
lfingers 7.12502
lthumb -22.3057 49.7433
rfemur -116.226 -65.0784 54.13
rtibia 144.472
rfoot -27.1365 27.5732
rtoes 5.26947
lfemur -101.516 44.3254 -19.7539
ltibia 142.353
lfoot -34.6746 -29.5075
ltoes -23.4395
343
root 0.525452 9.0287 -4.2661 7.2238 4.17189 -5.58059
lowerback 40.5107 7.88841 5.28674
upperback 18.1513 11.7152 7.83277
thorax 0.227653 5.61882 1.66826
lowerneck -14.4274 -6.99595 -2.85194
upperneck 25.1923 -7.25152 -5.87998
head 10.3249 -4.14285 -2.52028
rclavicle -7.95139e-014 -3.97569e-014
rhumerus 27.1042 -0.901453 -68.2598
rradius 32.8907
rwrist 28.177
rhand -55.5352 62.9383
rfingers 7.12502
rthumb -27.8919 34.9894
lclavicle -7.95139e-014 -3.97569e-014
lhumerus -39.1982 -36.099 98.5005
lradius 96.1008
lwrist -15.0821
lhand -49.6661 20.8138
lfingers 7.12502
lthumb -22.2685 49.5507
rfemur -116.594 -64.9091 54.7144
rtibia 144.391
rfoot -27.679 26.615
rtoes 2.81111
lfemur -101.68 43.8879 -19.6634
ltibia 142.325
lfoot -34.4173 -29.62
ltoes -23.2918
344
root 0.522267 9.02903 -4.27287 7.17645 4.38551 -5.56523
lowerback 40.6849 7.81231 5.3313
upperback 18.0859 11.6635 7.89486
thorax 0.0976045 5.58752 1.70615
lowerneck -14.4318 -7.01528 -2.90811
upperneck 25.2492 -7.25322 -5.90829
head 10.3484 -4.15159 -2.52404
rclavicle -1.46306e-013 -6.04305e-014
rhumerus 27.349 -0.739147 -68.0087
rradius 32.4165
rwrist 28.5448
rhand -55.3407 63.038
rfingers 7.12502
rthumb -27.706 35.059
lclavicle -1.46306e-013 -6.04305e-014
lhumerus -39.2945 -36.084 98.5984
lradius 96.1461
lwrist -15.2603
lhand -49.5852 21.1493
lfingers 7.12502
lthumb -22.1909 49.8955
rfemur -116.923 -64.9083 55.2148
rtibia 144.29
rfoot -28.2671 25.6517
rtoes 0.0409715
lfemur -101.679 43.3161 -19.4892
ltibia 142.237
lfoot -33.4283 -30.4198
ltoes -21.2855
345
root 0.519812 9.03641 -4.27428 7.09767 4.32454 -5.50385
lowerback 40.8618 7.84795 5.26588
upperback 18.0613 11.6924 7.87275
thorax 0.0111924 5.5939 1.68764
lowerneck -14.3883 -7.02509 -2.91156
upperneck 25.2724 -7.26023 -5.93033
head 10.3476 -4.15692 -2.53096
rclavicle 9.54166e-014 7.15625e-014
rhumerus 27.571 -0.587838 -67.8288
rradius 31.9364
rwrist 28.8228
rhand -55.4099 63.7657
rfingers 7.12502
rthumb -27.7722 35.7974
lclavicle 9.54166e-014 7.15625e-014
lhumerus -39.4485 -36.0983 98.6347
lradius 96.2848
lwrist -15.412
lhand -49.5154 21.4518
lfingers 7.12502
lthumb -22.1239 50.206
rfemur -116.672 -65.0012 54.8896
rtibia 144.288
rfoot -28.0574 25.9697
rtoes 1.15128
lfemur -101.417 43.3373 -19.3844
ltibia 142.124
lfoot -33.1501 -30.8182
ltoes -20.318
346
root 0.516646 9.04389 -4.27499 7.06036 4.19898 -5.51066
lowerback 40.9093 7.92855 5.1872
upperback 18.0994 11.7589 7.898
thorax 0.0190475 5.61894 1.72779
lowerneck -14.328 -7.02754 -2.93259
upperneck 25.1979 -7.25061 -5.97987
head 10.3082 -4.15959 -2.53777
rclavicle -2.54444e-014 3.97569e-014
rhumerus 27.8328 -0.436267 -67.5931
rradius 31.5014
rwrist 28.9719
rhand -55.6294 64.3344
rfingers 7.12502
rthumb -27.982 36.4001
lclavicle -2.54444e-014 3.97569e-014
lhumerus -39.5044 -36.0769 98.6428
lradius 96.4326
lwrist -15.4398
lhand -49.4946 21.3216
lfingers 7.12502
lthumb -22.1039 50.0781
rfemur -116.161 -64.6484 54.5466
rtibia 144.196
rfoot -28.2575 25.4206
rtoes 0.0779435
lfemur -101.26 43.5675 -19.3006
ltibia 142.05
lfoot -33.3041 -30.8582
ltoes -20.5321
347
root 0.514145 9.04804 -4.27705 7.04548 4.18372 -5.47138
lowerback 40.9533 7.9705 5.10969
upperback 18.1201 11.7848 7.93369
thorax 0.00647463 5.62407 1.78976
lowerneck -14.3422 -7.02052 -2.92859
upperneck 25.1768 -7.22826 -6.03337
head 10.3014 -4.15533 -2.55407
rclavicle -3.49861e-014 -3.49861e-014
rhumerus 28.119 -0.480958 -67.5021
rradius 31.0345
rwrist 29.339
rhand -55.9103 64.6522
rfingers 7.12502
rthumb -28.2505 36.7621
lclavicle -3.49861e-014 -3.49861e-014
lhumerus -39.4661 -36.0412 98.6313
lradius 96.4785
lwrist -15.4493
lhand -49.5104 21.1814
lfingers 7.12502
lthumb -22.1191 49.9361
rfemur -115.929 -64.3294 54.5365
rtibia 144.026
rfoot -28.9173 24.3191
rtoes -2.9529
lfemur -101.173 43.4541 -19.2624
ltibia 141.991
lfoot -33.1778 -30.8614
ltoes -20.4789
348
root 0.514289 9.05027 -4.27891 7.10454 4.19826 -5.39584
lowerback 40.9135 7.97783 5.06536
upperback 18.1178 11.776 7.91505
thorax 0.0115275 5.61943 1.79719
lowerneck -14.3829 -6.99347 -2.84937
upperneck 25.1866 -7.19159 -6.1007
head 10.3066 -4.13968 -2.58786
rclavicle -4.45278e-014 -8.42847e-014
rhumerus 28.4086 -0.67331 -67.5737
rradius 30.5037
rwrist 29.9892
rhand -56.1107 64.4981
rfingers 7.12502
rthumb -28.442 36.6398
lclavicle -4.45278e-014 -8.42847e-014
lhumerus -39.365 -36.0126 98.5749
lradius 96.3937
lwrist -15.468
lhand -49.5176 21.1252
lfingers 7.12502
lthumb -22.126 49.8791
rfemur -115.938 -64.1511 54.4972
rtibia 143.943
rfoot -29.1696 23.9166
rtoes -4.07532
lfemur -101.184 43.2204 -19.365
ltibia 141.932
lfoot -33.2611 -30.5816
ltoes -20.8597
